<?xml version="1.0" standalone="no"?>
<!DOCTYPE svg PUBLIC "-//W3C//DTD SVG 20010904//EN"
 "http://www.w3.org/TR/2001/REC-SVG-20010904/DTD/svg10.dtd">
<svg version="1.0" xmlns="http://www.w3.org/2000/svg"
 width="512.000000pt" height="512.000000pt" viewBox="0 0 512.000000 512.000000"
 preserveAspectRatio="xMidYMid meet">
<metadata>
Created by potrace 1.11, written by Peter Selinger 2001-2013
</metadata>
<g transform="translate(0.000000,512.000000) scale(0.100000,-0.100000)"
fill="#000000" stroke="none">
<path d="M2500 4743 c-19 -10 -45 -33 -57 -52 -23 -34 -23 -38 -23 -353 0
-351 1 -356 62 -399 65 -46 166 -21 203 51 12 24 15 85 15 347 0 298 -1 320
-20 350 -39 65 -117 89 -180 56z"/>
<path d="M1032 4153 c-59 -29 -90 -92 -77 -161 6 -31 37 -68 203 -236 250
-252 280 -276 338 -276 25 0 58 7 74 15 58 30 92 112 70 170 -12 33 -439 468
-482 491 -35 18 -85 18 -126 -3z"/>
<path d="M3981 4159 c-28 -6 -81 -54 -267 -241 -212 -213 -232 -237 -239 -276
-10 -62 22 -124 79 -151 48 -24 72 -26 113 -11 32 12 457 431 479 472 8 15 14
48 14 73 0 39 -5 52 -37 86 -42 44 -87 60 -142 48z"/>
<path d="M2388 3664 c-579 -90 -999 -629 -939 -1205 46 -437 340 -811 747
-950 607 -206 1262 136 1438 754 118 410 -14 849 -341 1139 -245 216 -579 313
-905 262z m-158 -470 c-24 -147 -5 -316 52 -453 89 -213 285 -400 500 -477
118 -42 340 -60 441 -35 20 5 37 6 37 3 0 -3 -20 -38 -45 -78 -99 -158 -276
-288 -460 -335 -109 -28 -271 -28 -377 0 -212 55 -393 199 -492 390 -187 362
-63 802 284 1011 35 22 65 38 67 36 1 -1 -2 -29 -7 -62z"/>
<path d="M464 2699 c-64 -19 -116 -109 -100 -172 3 -13 15 -36 27 -52 42 -52
62 -55 395 -55 339 0 353 2 397 64 45 63 25 147 -47 200 -26 20 -42 21 -334
23 -169 1 -321 -2 -338 -8z"/>
<path d="M4016 2700 c-40 -12 -83 -56 -97 -98 -21 -64 11 -136 75 -166 51 -24
631 -24 682 0 102 48 110 193 14 249 -33 19 -53 20 -340 22 -168 1 -318 -2
-334 -7z"/>
<path d="M1445 1641 c-38 -18 -431 -404 -469 -461 -22 -34 -21 -107 4 -147 32
-53 105 -81 168 -64 29 8 83 57 258 233 122 123 227 233 233 245 18 36 13 102
-11 141 -21 35 -85 72 -123 72 -11 0 -38 -9 -60 -19z"/>
<path d="M3542 1630 c-52 -32 -74 -76 -69 -138 l4 -54 236 -235 235 -236 54
-4 c68 -5 111 20 138 80 45 99 31 123 -228 374 -119 115 -227 215 -239 221
-33 18 -94 14 -131 -8z"/>
<path d="M2493 1194 c-18 -9 -42 -31 -53 -49 -19 -31 -20 -49 -20 -357 0 -321
0 -325 23 -359 60 -90 181 -88 237 4 19 30 20 52 20 350 0 272 -2 324 -16 353
-32 67 -119 93 -191 58z"/>
</g>
</svg>
