<svg width="16" height="16" viewBox="0 0 16 16" fill="none" xmlns="http://www.w3.org/2000/svg">
<path d="M7.99967 10.6668C9.47243 10.6668 10.6663 9.47292 10.6663 8.00016C10.6663 6.5274 9.47243 5.3335 7.99967 5.3335C6.52692 5.3335 5.33301 6.5274 5.33301 8.00016C5.33301 9.47292 6.52692 10.6668 7.99967 10.6668Z" stroke="#C68200" stroke-opacity="0.65" stroke-width="1.33333" stroke-linecap="round" stroke-linejoin="round"/>
<path d="M4.2 11.8L3.73333 12.2667M2 8H2.66667H2ZM8 2V2.66667V2ZM13.3333 8H14H13.3333ZM8 13.3333V14V13.3333ZM3.73333 3.73333L4.2 4.2L3.73333 3.73333ZM12.2667 3.73333L11.8 4.2L12.2667 3.73333ZM11.8 11.8L12.2667 12.2667L11.8 11.8Z" stroke="#C68200" stroke-opacity="0.65" stroke-width="1.33333" stroke-linecap="round" stroke-linejoin="round"/>
</svg>
